# xmcd CD Database Entry
#
# Track frame offsets:
# 182
# 2872
# 23347
# 26250
# 27952
# 46722
# 49642
# 52875
# 68230
# 94382
# 115775
# 117175
# 150210
# 151797
# 165350
# 198860
# 216080
# 217182
# 243392
# 250912
# 296400
#
# Disc length: 3989 seconds
#
# Revision: 3
# Processed by: cddbd v1.4b42PL1 Copyright (c) Steve Scherf et al.
# Submitted via: tcd 2.0b
#
DISCID=030f9315
DTITLE=NPG - Exodus
DYEAR=1900
DGENRE=
TTITLE0=NPG Operator Intro
TTITLE1=Get Wild
TTITLE2=Segue
TTITLE3=DJ Gets Jumped
TTITLE4=New Power Sould
TTITLE5=DJ Seduces Sonny
TTITLE6=Segue
TTITLE7=Count the Days
TTITLE8=The Good Life
TTITLE9=Cherry, Cherry
TTITLE10=Segue
TTITLE11=Return of the Bump Squad
TTITLE12=Mashed Patato Girl Intro
TTITLE13=Segue
TTITLE14=Big Fun
TTITLE15=New Power Day
TTITLE16=Segue
TTITLE17=Hallucination Rain
TTITLE18=NPG Bum Jump the Ship
TTITLE19=The Exodus has Begun
TTITLE20=Outro
EXTD=
EXTT0=
EXTT1=
EXTT2=
EXTT3=
EXTT4=
EXTT5=
EXTT6=
EXTT7=
EXTT8=
EXTT9=
EXTT10=
EXTT11=
EXTT12=
EXTT13=
EXTT14=
EXTT15=
EXTT16=
EXTT17=
EXTT18=
EXTT19=
EXTT20=
PLAYORDER=
